<svg width="139px" height="114px" viewBox="650 174 139 114" version="1.1" xmlns="http://www.w3.org/2000/svg" xmlns:xlink="http://www.w3.org/1999/xlink">
    <!-- Generator: Sketch 39.1 (31720) - http://www.bohemiancoding.com/sketch -->
    <desc>Created with Sketch.</desc>
    <defs></defs>
    <g id="envelope-(6)" stroke="none" stroke-width="1" fill="none" fill-rule="evenodd" transform="translate(650.000000, 174.000000)">
        <g id="Capa_1">
            <g id="Group">
                <g id="Shape">
                    <polygon fill="#DCD6CD" points="0 0 0 92.625 66.6206897 92.625 133.241379 92.625 133.241379 0"></polygon>
                    <path d="M73.6753448,52.504125 C69.7804138,55.976375 63.4633448,55.976375 59.5660345,52.504125 L54.6004138,48.127 C39.0658966,61.966125 0,92.625 0,92.625 L51.4097586,92.625 L81.834,92.625 L133.241379,92.625 C133.241379,92.625 94.1754828,61.966125 78.6409655,48.127 L73.6753448,52.504125 L73.6753448,52.504125 Z" fill="#E8E3D9"></path>
                    <path d="M0,0 L59.5660345,52.504125 C63.4609655,55.976375 69.7780345,55.976375 73.6753448,52.504125 L133.241379,0 L0,0 L0,0 Z" fill="#EFEBDE"></path>
                </g>
                <g transform="translate(80.896552, 57.000000)">
                    <ellipse id="Oval" fill="#F6A623" cx="28.5517241" cy="28.5" rx="28.5517241" ry="28.5"></ellipse>
                    <path d="M28.891669,13 C26.8003866,13 24.8259995,13.3936492 22.9684512,14.1809524 C21.1109029,14.9682555 19.4871122,16.044637 18.0970226,17.4101202 C16.7069378,18.7756035 15.5998043,20.3809429 14.7755941,22.2261905 C13.9513838,24.071438 13.5146827,26.0396699 13.4654762,28.1309524 L13.4654762,28.5 L9,28.5 L15.7904762,35.8809524 L22.3595238,28.5 L17.3404762,28.5 L17.3404762,28.1309524 C17.3896841,26.5563413 17.7218246,25.0863154 18.3369024,23.7208322 C18.9519849,22.3553489 19.7823362,21.1682603 20.827975,20.1595238 C21.8736186,19.1507874 23.0914592,18.3511928 24.4815488,17.7607119 C25.8716337,17.1702357 27.3416596,16.8749976 28.891669,16.8749976 C30.4908817,16.8749976 31.99781,17.1825365 33.4125012,17.797619 C34.8271877,18.4127016 36.0573338,19.2430481 37.1029774,20.2886917 C38.1486162,21.3343305 38.9728123,22.5644766 39.5755941,23.9791678 C40.1783758,25.3938543 40.4797595,26.9007874 40.4797595,28.5 C40.4797595,30.0992126 40.1783758,31.6061457 39.5755941,33.0208322 C38.9728123,34.4355234 38.1486162,35.6718199 37.1029774,36.7297643 C36.0573338,37.7877039 34.8271877,38.6180504 33.4125012,39.2208322 C31.99781,39.8236143 30.4908817,40.125 28.891669,40.125 C27.6122961,40.125 26.3944507,39.9281763 25.2380952,39.5345238 C24.0817397,39.1408722 23.0115134,38.5873032 22.0273786,37.8738095 L19.4071429,40.7154762 C20.7111174,41.7488147 22.1688425,42.5545606 23.780356,43.1327379 C25.3918741,43.7109156 27.0956247,44 28.891669,44 C31.0321547,44 33.0372937,43.5940517 34.9071429,42.7821429 C36.776992,41.9702338 38.4130882,40.8631023 39.8154786,39.4607143 C41.2178642,38.0583262 42.3249976,36.4160797 43.1369024,34.5339298 C43.9488119,32.6517751 44.3547619,30.6404856 44.3547619,28.5 C44.3547619,26.3595144 43.9488119,24.3482249 43.1369024,22.4660702 C42.3249976,20.5839203 41.2178642,18.9416738 39.8154786,17.5392881 C38.4130882,16.1368977 36.776992,15.0297643 34.9071429,14.2178548 C33.0372937,13.40595 31.0321547,13 28.891669,13 L28.891669,13 Z" id="Page-1" fill="#FFFFFF"></path>
                </g>
            </g>
        </g>
    </g>
</svg>
