<svg width="139px" height="114px" viewBox="175 0 139 114" version="1.1" xmlns="http://www.w3.org/2000/svg" xmlns:xlink="http://www.w3.org/1999/xlink">
    <!-- Generator: Sketch 39.1 (31720) - http://www.bohemiancoding.com/sketch -->
    <desc>Created with Sketch.</desc>
    <defs></defs>
    <g id="envelope-(6)" stroke="none" stroke-width="1" fill="none" fill-rule="evenodd" transform="translate(175.000000, 0.000000)">
        <g id="Capa_1">
            <g id="Group">
                <g id="Shape">
                    <polygon fill="#DCD6CD" points="0 0 0 92.625 66.6206897 92.625 133.241379 92.625 133.241379 0"></polygon>
                    <path d="M73.6753448,52.504125 C69.7804138,55.976375 63.4633448,55.976375 59.5660345,52.504125 L54.6004138,48.127 C39.0658966,61.966125 0,92.625 0,92.625 L51.4097586,92.625 L81.834,92.625 L133.241379,92.625 C133.241379,92.625 94.1754828,61.966125 78.6409655,48.127 L73.6753448,52.504125 L73.6753448,52.504125 Z" fill="#E8E3D9"></path>
                    <path d="M0,0 L59.5660345,52.504125 C63.4609655,55.976375 69.7780345,55.976375 73.6753448,52.504125 L133.241379,0 L0,0 L0,0 Z" fill="#EFEBDE"></path>
                </g>
                <g transform="translate(80.896552, 57.000000)">
                    <ellipse id="Oval" fill="#29BBAF" cx="28.5517241" cy="28.5" rx="28.5517241" ry="28.5"></ellipse>
                    <path d="M42.4157641,22.1993454 C42.775344,22.5592893 42.775344,22.9192332 42.4157641,23.279177 L27.4332665,38.2768391 C27.2734519,38.4368149 27.0936658,38.5168017 26.8938966,38.5168017 C26.674152,38.5168017 26.5143413,38.4368149 26.3545267,38.2768391 L17.23972,29.1528069 C17.0799059,28.9928305 17,28.8128624 17,28.612891 C17,28.4129196 17.0799059,28.2329515 17.23972,28.0729752 L21.1950993,24.1135924 C21.5147285,23.7936397 21.8543292,23.7936397 22.2139092,24.1135924 L26.8938966,28.7983167 L37.4415749,18.2399626 C37.6013895,18.0799863 37.7612002,18 37.9210148,18 C38.120784,18 38.3005701,18.0799863 38.4603847,18.2399626 L42.4157641,22.1993454 Z" id="Page-1-Copy" fill="#FFFFFF"></path>
                </g>
            </g>
        </g>
    </g>
</svg>
